<?xml version="1.0" encoding="utf-8"?>
<!-- Generator: Adobe Illustrator 24.3.0, SVG Export Plug-In . SVG Version: 6.00 Build 0)  -->
<svg version="1.1" id="Layer_1" xmlns="http://www.w3.org/2000/svg" xmlns:xlink="http://www.w3.org/1999/xlink" x="0px" y="0px"
	 viewBox="0 0 84 84" style="enable-background:new 0 0 84 84;" xml:space="preserve">
<style type="text/css">
	.st0{fill:#5F6368;}
</style>
<g>
	<path class="st0" d="M20,10c0,5.5-4.5,10-10,10S0,15.5,0,10S4.5,0,10,0S20,4.5,20,10z M74,0c-5.5,0-10,4.5-10,10s4.5,10,10,10
		s10-4.5,10-10S79.5,0,74,0z M42,0c-5.5,0-10,4.5-10,10s4.5,10,10,10s10-4.5,10-10S47.5,0,42,0z M10,32C4.5,32,0,36.5,0,42
		s4.5,10,10,10s10-4.5,10-10S15.5,32,10,32z M74,32c-5.5,0-10,4.5-10,10s4.5,10,10,10s10-4.5,10-10S79.5,32,74,32z M42,32
		c-5.5,0-10,4.5-10,10s4.5,10,10,10s10-4.5,10-10S47.5,32,42,32z M10,64C4.5,64,0,68.5,0,74s4.5,10,10,10s10-4.5,10-10
		S15.5,64,10,64z M74,64c-5.5,0-10,4.5-10,10s4.5,10,10,10s10-4.5,10-10S79.5,64,74,64z M42,64c-5.5,0-10,4.5-10,10s4.5,10,10,10
		s10-4.5,10-10S47.5,64,42,64z"/>
</g>
</svg>
